{
	"patcher" : 	{
		"fileversion" : 1,
		"rect" : [ 25.0, 69.0, 1845.0, 1000.0 ],
		"bglocked" : 0,
		"defrect" : [ 25.0, 69.0, 1845.0, 1000.0 ],
		"openrect" : [ 0.0, 0.0, 0.0, 0.0 ],
		"openinpresentation" : 0,
		"default_fontsize" : 12.0,
		"default_fontface" : 0,
		"default_fontname" : "Arial",
		"gridonopen" : 0,
		"gridsize" : [ 15.0, 15.0 ],
		"gridsnaponopen" : 0,
		"toolbarvisible" : 1,
		"boxanimatetime" : 200,
		"imprint" : 0,
		"enablehscroll" : 1,
		"enablevscroll" : 1,
		"boxes" : [ 			{
				"box" : 				{
					"maxclass" : "newobj",
					"text" : "- 1",
					"patching_rect" : [ 147.0, 47.0, 32.5, 20.0 ],
					"numinlets" : 2,
					"id" : "obj-134",
					"fontname" : "Arial",
					"numoutlets" : 1,
					"outlettype" : [ "int" ],
					"fontsize" : 12.0
				}

			}
, 			{
				"box" : 				{
					"maxclass" : "number",
					"patching_rect" : [ 182.0, 29.0, 50.0, 20.0 ],
					"numinlets" : 1,
					"id" : "obj-133",
					"fontname" : "Arial",
					"minimum" : 1,
					"numoutlets" : 2,
					"outlettype" : [ "int", "bang" ],
					"fontsize" : 12.0
				}

			}
, 			{
				"box" : 				{
					"maxclass" : "message",
					"text" : "columns $1",
					"patching_rect" : [ 182.0, 122.0, 72.0, 18.0 ],
					"numinlets" : 2,
					"id" : "obj-131",
					"fontname" : "Arial",
					"numoutlets" : 1,
					"outlettype" : [ "" ],
					"fontsize" : 12.0
				}

			}
, 			{
				"box" : 				{
					"maxclass" : "message",
					"text" : "0",
					"patching_rect" : [ 112.0, 49.0, 32.5, 18.0 ],
					"numinlets" : 2,
					"id" : "obj-126",
					"fontname" : "Arial",
					"numoutlets" : 1,
					"outlettype" : [ "" ],
					"fontsize" : 12.0
				}

			}
, 			{
				"box" : 				{
					"maxclass" : "newobj",
					"text" : "counter",
					"patching_rect" : [ 30.0, 66.0, 73.0, 20.0 ],
					"numinlets" : 5,
					"id" : "obj-123",
					"fontname" : "Arial",
					"numoutlets" : 4,
					"outlettype" : [ "int", "", "", "int" ],
					"fontsize" : 12.0
				}

			}
, 			{
				"box" : 				{
					"maxclass" : "toggle",
					"patching_rect" : [ 30.0, 12.0, 20.0, 20.0 ],
					"numinlets" : 1,
					"id" : "obj-122",
					"numoutlets" : 1,
					"outlettype" : [ "int" ]
				}

			}
, 			{
				"box" : 				{
					"maxclass" : "newobj",
					"text" : "metro 100",
					"patching_rect" : [ 30.0, 39.0, 65.0, 20.0 ],
					"numinlets" : 2,
					"id" : "obj-120",
					"fontname" : "Arial",
					"numoutlets" : 1,
					"outlettype" : [ "bang" ],
					"fontsize" : 12.0
				}

			}
, 			{
				"box" : 				{
					"maxclass" : "newobj",
					"text" : "zl rev",
					"patching_rect" : [ 72.0, 488.0, 39.0, 20.0 ],
					"numinlets" : 2,
					"id" : "obj-116",
					"fontname" : "Arial",
					"numoutlets" : 2,
					"outlettype" : [ "", "" ],
					"fontsize" : 12.0
				}

			}
, 			{
				"box" : 				{
					"maxclass" : "comment",
					"text" : "LA",
					"presentation_rect" : [ 87.0, 484.0, 0.0, 0.0 ],
					"patching_rect" : [ 7.0, 150.0, 20.0, 16.0 ],
					"numinlets" : 1,
					"id" : "obj-111",
					"fontname" : "Arial",
					"numoutlets" : 0,
					"fontsize" : 8.0
				}

			}
, 			{
				"box" : 				{
					"maxclass" : "comment",
					"text" : "SOL",
					"presentation_rect" : [ 87.0, 506.0, 0.0, 0.0 ],
					"patching_rect" : [ 7.0, 166.0, 27.0, 16.0 ],
					"numinlets" : 1,
					"id" : "obj-112",
					"fontname" : "Arial",
					"numoutlets" : 0,
					"fontsize" : 8.0
				}

			}
, 			{
				"box" : 				{
					"maxclass" : "comment",
					"text" : "FA",
					"presentation_rect" : [ 86.0, 531.0, 0.0, 0.0 ],
					"patching_rect" : [ 7.0, 182.0, 21.0, 16.0 ],
					"numinlets" : 1,
					"id" : "obj-113",
					"fontname" : "Arial",
					"numoutlets" : 0,
					"fontsize" : 8.0
				}

			}
, 			{
				"box" : 				{
					"maxclass" : "comment",
					"text" : "MI",
					"presentation_rect" : [ 86.0, 553.0, 0.0, 0.0 ],
					"patching_rect" : [ 7.0, 198.0, 19.0, 16.0 ],
					"numinlets" : 1,
					"id" : "obj-114",
					"fontname" : "Arial",
					"numoutlets" : 0,
					"fontsize" : 8.0
				}

			}
, 			{
				"box" : 				{
					"maxclass" : "comment",
					"text" : "RÉ",
					"presentation_rect" : [ 85.0, 575.0, 0.0, 0.0 ],
					"patching_rect" : [ 7.0, 214.0, 22.0, 16.0 ],
					"numinlets" : 1,
					"id" : "obj-115",
					"fontname" : "Arial",
					"numoutlets" : 0,
					"fontsize" : 8.0
				}

			}
, 			{
				"box" : 				{
					"maxclass" : "comment",
					"text" : "DO",
					"presentation_rect" : [ 83.0, 570.0, 0.0, 0.0 ],
					"patching_rect" : [ 7.0, 230.0, 22.0, 16.0 ],
					"numinlets" : 1,
					"id" : "obj-103",
					"fontname" : "Arial",
					"numoutlets" : 0,
					"fontsize" : 8.0
				}

			}
, 			{
				"box" : 				{
					"maxclass" : "comment",
					"text" : "SI",
					"presentation_rect" : [ 83.0, 592.0, 0.0, 0.0 ],
					"patching_rect" : [ 7.0, 246.0, 18.0, 16.0 ],
					"numinlets" : 1,
					"id" : "obj-104",
					"fontname" : "Arial",
					"numoutlets" : 0,
					"fontsize" : 8.0
				}

			}
, 			{
				"box" : 				{
					"maxclass" : "comment",
					"text" : "LA",
					"presentation_rect" : [ 81.0, 613.0, 0.0, 0.0 ],
					"patching_rect" : [ 7.0, 262.0, 20.0, 16.0 ],
					"numinlets" : 1,
					"id" : "obj-105",
					"fontname" : "Arial",
					"numoutlets" : 0,
					"fontsize" : 8.0
				}

			}
, 			{
				"box" : 				{
					"maxclass" : "comment",
					"text" : "SOL",
					"presentation_rect" : [ 81.0, 635.0, 0.0, 0.0 ],
					"patching_rect" : [ 7.0, 278.0, 27.0, 16.0 ],
					"numinlets" : 1,
					"id" : "obj-106",
					"fontname" : "Arial",
					"numoutlets" : 0,
					"fontsize" : 8.0
				}

			}
, 			{
				"box" : 				{
					"maxclass" : "comment",
					"text" : "FA",
					"presentation_rect" : [ 80.0, 660.0, 0.0, 0.0 ],
					"patching_rect" : [ 7.0, 294.0, 21.0, 16.0 ],
					"numinlets" : 1,
					"id" : "obj-107",
					"fontname" : "Arial",
					"numoutlets" : 0,
					"fontsize" : 8.0
				}

			}
, 			{
				"box" : 				{
					"maxclass" : "comment",
					"text" : "MI",
					"presentation_rect" : [ 80.0, 682.0, 0.0, 0.0 ],
					"patching_rect" : [ 7.0, 310.0, 19.0, 16.0 ],
					"numinlets" : 1,
					"id" : "obj-108",
					"fontname" : "Arial",
					"numoutlets" : 0,
					"fontsize" : 8.0
				}

			}
, 			{
				"box" : 				{
					"maxclass" : "comment",
					"text" : "RÉ",
					"presentation_rect" : [ 79.0, 704.0, 0.0, 0.0 ],
					"patching_rect" : [ 7.0, 326.0, 22.0, 16.0 ],
					"numinlets" : 1,
					"id" : "obj-109",
					"fontname" : "Arial",
					"numoutlets" : 0,
					"fontsize" : 8.0
				}

			}
, 			{
				"box" : 				{
					"maxclass" : "comment",
					"text" : "DO",
					"presentation_rect" : [ 79.0, 750.0, 0.0, 0.0 ],
					"patching_rect" : [ 7.0, 342.0, 22.0, 16.0 ],
					"numinlets" : 1,
					"id" : "obj-102",
					"fontname" : "Arial",
					"numoutlets" : 0,
					"fontsize" : 8.0
				}

			}
, 			{
				"box" : 				{
					"maxclass" : "comment",
					"text" : "SI",
					"presentation_rect" : [ 79.0, 772.0, 0.0, 0.0 ],
					"patching_rect" : [ 7.0, 358.0, 18.0, 16.0 ],
					"numinlets" : 1,
					"id" : "obj-101",
					"fontname" : "Arial",
					"numoutlets" : 0,
					"fontsize" : 8.0
				}

			}
, 			{
				"box" : 				{
					"maxclass" : "comment",
					"text" : "LA",
					"presentation_rect" : [ 77.0, 793.0, 0.0, 0.0 ],
					"patching_rect" : [ 7.0, 374.0, 20.0, 16.0 ],
					"numinlets" : 1,
					"id" : "obj-100",
					"fontname" : "Arial",
					"numoutlets" : 0,
					"fontsize" : 8.0
				}

			}
, 			{
				"box" : 				{
					"maxclass" : "comment",
					"text" : "SOL",
					"presentation_rect" : [ 77.0, 815.0, 0.0, 0.0 ],
					"patching_rect" : [ 7.0, 390.0, 27.0, 16.0 ],
					"numinlets" : 1,
					"id" : "obj-99",
					"fontname" : "Arial",
					"numoutlets" : 0,
					"fontsize" : 8.0
				}

			}
, 			{
				"box" : 				{
					"maxclass" : "comment",
					"text" : "FA",
					"presentation_rect" : [ 76.0, 840.0, 0.0, 0.0 ],
					"patching_rect" : [ 7.0, 406.0, 21.0, 16.0 ],
					"numinlets" : 1,
					"id" : "obj-98",
					"fontname" : "Arial",
					"numoutlets" : 0,
					"fontsize" : 8.0
				}

			}
, 			{
				"box" : 				{
					"maxclass" : "comment",
					"text" : "MI",
					"presentation_rect" : [ 76.0, 862.0, 0.0, 0.0 ],
					"patching_rect" : [ 7.0, 422.0, 19.0, 16.0 ],
					"numinlets" : 1,
					"id" : "obj-97",
					"fontname" : "Arial",
					"numoutlets" : 0,
					"fontsize" : 8.0
				}

			}
, 			{
				"box" : 				{
					"maxclass" : "comment",
					"text" : "RÉ",
					"presentation_rect" : [ 75.0, 884.0, 0.0, 0.0 ],
					"patching_rect" : [ 7.0, 438.0, 22.0, 16.0 ],
					"numinlets" : 1,
					"id" : "obj-96",
					"fontname" : "Arial",
					"numoutlets" : 0,
					"fontsize" : 8.0
				}

			}
, 			{
				"box" : 				{
					"maxclass" : "comment",
					"text" : "DO",
					"patching_rect" : [ 7.0, 454.0, 22.0, 16.0 ],
					"numinlets" : 1,
					"id" : "obj-95",
					"fontname" : "Arial",
					"numoutlets" : 0,
					"fontsize" : 8.0
				}

			}
, 			{
				"box" : 				{
					"maxclass" : "message",
					"text" : "clear",
					"patching_rect" : [ 135.0, 122.0, 37.0, 18.0 ],
					"numinlets" : 2,
					"id" : "obj-93",
					"fontname" : "Arial",
					"numoutlets" : 1,
					"outlettype" : [ "" ],
					"fontsize" : 12.0
				}

			}
, 			{
				"box" : 				{
					"maxclass" : "newobj",
					"text" : "noteout",
					"patching_rect" : [ 28.0, 753.0, 107.0, 20.0 ],
					"numinlets" : 3,
					"id" : "obj-91",
					"fontname" : "Arial",
					"numoutlets" : 0,
					"fontsize" : 12.0
				}

			}
, 			{
				"box" : 				{
					"maxclass" : "newobj",
					"text" : "t 64 2000",
					"patching_rect" : [ 63.0, 692.0, 61.0, 20.0 ],
					"numinlets" : 1,
					"id" : "obj-90",
					"fontname" : "Arial",
					"numoutlets" : 2,
					"outlettype" : [ "int", "int" ],
					"fontsize" : 12.0
				}

			}
, 			{
				"box" : 				{
					"maxclass" : "newobj",
					"text" : "makenote",
					"patching_rect" : [ 28.0, 724.0, 89.0, 20.0 ],
					"numinlets" : 3,
					"id" : "obj-89",
					"fontname" : "Arial",
					"numoutlets" : 2,
					"outlettype" : [ "float", "float" ],
					"fontsize" : 12.0
				}

			}
, 			{
				"box" : 				{
					"maxclass" : "newobj",
					"text" : "+ 60",
					"patching_rect" : [ 72.0, 652.0, 34.0, 20.0 ],
					"numinlets" : 2,
					"id" : "obj-88",
					"fontname" : "Arial",
					"numoutlets" : 1,
					"outlettype" : [ "int" ],
					"fontsize" : 12.0
				}

			}
, 			{
				"box" : 				{
					"maxclass" : "newobj",
					"text" : "33",
					"patching_rect" : [ 927.0, 616.0, 32.0, 20.0 ],
					"numinlets" : 2,
					"id" : "obj-86",
					"fontname" : "Arial",
					"numoutlets" : 1,
					"outlettype" : [ "int" ],
					"fontsize" : 12.0
				}

			}
, 			{
				"box" : 				{
					"maxclass" : "newobj",
					"text" : "31",
					"patching_rect" : [ 882.0, 616.0, 32.0, 20.0 ],
					"numinlets" : 2,
					"id" : "obj-87",
					"fontname" : "Arial",
					"numoutlets" : 1,
					"outlettype" : [ "int" ],
					"fontsize" : 12.0
				}

			}
, 			{
				"box" : 				{
					"maxclass" : "newobj",
					"text" : "29",
					"patching_rect" : [ 837.0, 616.0, 32.0, 20.0 ],
					"numinlets" : 2,
					"id" : "obj-77",
					"fontname" : "Arial",
					"numoutlets" : 1,
					"outlettype" : [ "int" ],
					"fontsize" : 12.0
				}

			}
, 			{
				"box" : 				{
					"maxclass" : "newobj",
					"text" : "28",
					"patching_rect" : [ 792.0, 616.0, 32.0, 20.0 ],
					"numinlets" : 2,
					"id" : "obj-78",
					"fontname" : "Arial",
					"numoutlets" : 1,
					"outlettype" : [ "int" ],
					"fontsize" : 12.0
				}

			}
, 			{
				"box" : 				{
					"maxclass" : "newobj",
					"text" : "26",
					"patching_rect" : [ 747.0, 616.0, 32.0, 20.0 ],
					"numinlets" : 2,
					"id" : "obj-79",
					"fontname" : "Arial",
					"numoutlets" : 1,
					"outlettype" : [ "int" ],
					"fontsize" : 12.0
				}

			}
, 			{
				"box" : 				{
					"maxclass" : "newobj",
					"text" : "24",
					"patching_rect" : [ 702.0, 616.0, 32.5, 20.0 ],
					"numinlets" : 2,
					"id" : "obj-80",
					"fontname" : "Arial",
					"numoutlets" : 1,
					"outlettype" : [ "int" ],
					"fontsize" : 12.0
				}

			}
, 			{
				"box" : 				{
					"maxclass" : "newobj",
					"text" : "23",
					"patching_rect" : [ 657.0, 616.0, 32.0, 20.0 ],
					"numinlets" : 2,
					"id" : "obj-81",
					"fontname" : "Arial",
					"numoutlets" : 1,
					"outlettype" : [ "int" ],
					"fontsize" : 12.0
				}

			}
, 			{
				"box" : 				{
					"maxclass" : "newobj",
					"text" : "21",
					"patching_rect" : [ 612.0, 616.0, 32.0, 20.0 ],
					"numinlets" : 2,
					"id" : "obj-82",
					"fontname" : "Arial",
					"numoutlets" : 1,
					"outlettype" : [ "int" ],
					"fontsize" : 12.0
				}

			}
, 			{
				"box" : 				{
					"maxclass" : "newobj",
					"text" : "19",
					"patching_rect" : [ 567.0, 616.0, 32.0, 20.0 ],
					"numinlets" : 2,
					"id" : "obj-83",
					"fontname" : "Arial",
					"numoutlets" : 1,
					"outlettype" : [ "int" ],
					"fontsize" : 12.0
				}

			}
, 			{
				"box" : 				{
					"maxclass" : "newobj",
					"text" : "17",
					"patching_rect" : [ 522.0, 616.0, 32.0, 20.0 ],
					"numinlets" : 2,
					"id" : "obj-84",
					"fontname" : "Arial",
					"numoutlets" : 1,
					"outlettype" : [ "int" ],
					"fontsize" : 12.0
				}

			}
, 			{
				"box" : 				{
					"maxclass" : "newobj",
					"text" : "16",
					"patching_rect" : [ 477.0, 616.0, 32.0, 20.0 ],
					"numinlets" : 2,
					"id" : "obj-85",
					"fontname" : "Arial",
					"numoutlets" : 1,
					"outlettype" : [ "int" ],
					"fontsize" : 12.0
				}

			}
, 			{
				"box" : 				{
					"maxclass" : "newobj",
					"text" : "14",
					"patching_rect" : [ 432.0, 616.0, 32.0, 20.0 ],
					"numinlets" : 2,
					"id" : "obj-76",
					"fontname" : "Arial",
					"numoutlets" : 1,
					"outlettype" : [ "int" ],
					"fontsize" : 12.0
				}

			}
, 			{
				"box" : 				{
					"maxclass" : "newobj",
					"text" : "12",
					"patching_rect" : [ 387.0, 616.0, 32.0, 20.0 ],
					"numinlets" : 2,
					"id" : "obj-75",
					"fontname" : "Arial",
					"numoutlets" : 1,
					"outlettype" : [ "int" ],
					"fontsize" : 12.0
				}

			}
, 			{
				"box" : 				{
					"maxclass" : "newobj",
					"text" : "11",
					"patching_rect" : [ 342.0, 616.0, 32.0, 20.0 ],
					"numinlets" : 2,
					"id" : "obj-74",
					"fontname" : "Arial",
					"numoutlets" : 1,
					"outlettype" : [ "int" ],
					"fontsize" : 12.0
				}

			}
, 			{
				"box" : 				{
					"maxclass" : "newobj",
					"text" : "9",
					"patching_rect" : [ 297.0, 616.0, 32.0, 20.0 ],
					"numinlets" : 2,
					"id" : "obj-73",
					"fontname" : "Arial",
					"numoutlets" : 1,
					"outlettype" : [ "int" ],
					"fontsize" : 12.0
				}

			}
, 			{
				"box" : 				{
					"maxclass" : "newobj",
					"text" : "7",
					"patching_rect" : [ 252.0, 616.0, 32.0, 20.0 ],
					"numinlets" : 2,
					"id" : "obj-72",
					"fontname" : "Arial",
					"numoutlets" : 1,
					"outlettype" : [ "int" ],
					"fontsize" : 12.0
				}

			}
, 			{
				"box" : 				{
					"maxclass" : "newobj",
					"text" : "5",
					"patching_rect" : [ 207.0, 616.0, 32.0, 20.0 ],
					"numinlets" : 2,
					"id" : "obj-71",
					"fontname" : "Arial",
					"numoutlets" : 1,
					"outlettype" : [ "int" ],
					"fontsize" : 12.0
				}

			}
, 			{
				"box" : 				{
					"maxclass" : "newobj",
					"text" : "4",
					"patching_rect" : [ 162.0, 616.0, 32.0, 20.0 ],
					"numinlets" : 2,
					"id" : "obj-70",
					"fontname" : "Arial",
					"numoutlets" : 1,
					"outlettype" : [ "int" ],
					"fontsize" : 12.0
				}

			}
, 			{
				"box" : 				{
					"maxclass" : "newobj",
					"text" : "2",
					"patching_rect" : [ 117.0, 616.0, 32.0, 20.0 ],
					"numinlets" : 2,
					"id" : "obj-69",
					"fontname" : "Arial",
					"numoutlets" : 1,
					"outlettype" : [ "int" ],
					"fontsize" : 12.0
				}

			}
, 			{
				"box" : 				{
					"maxclass" : "newobj",
					"text" : "0",
					"patching_rect" : [ 72.0, 616.0, 32.5, 20.0 ],
					"numinlets" : 2,
					"id" : "obj-68",
					"fontname" : "Arial",
					"numoutlets" : 1,
					"outlettype" : [ "int" ],
					"fontsize" : 12.0
				}

			}
, 			{
				"box" : 				{
					"maxclass" : "number",
					"patching_rect" : [ 30.0, 94.0, 50.0, 20.0 ],
					"numinlets" : 1,
					"id" : "obj-54",
					"fontname" : "Arial",
					"minimum" : 0,
					"numoutlets" : 2,
					"outlettype" : [ "int", "bang" ],
					"fontsize" : 12.0
				}

			}
, 			{
				"box" : 				{
					"maxclass" : "newobj",
					"text" : "sel 1",
					"presentation_rect" : [ 1190.0, 599.0, 0.0, 0.0 ],
					"patching_rect" : [ 927.473633, 545.0, 36.0, 20.0 ],
					"numinlets" : 2,
					"id" : "obj-49",
					"fontname" : "Arial",
					"numoutlets" : 2,
					"outlettype" : [ "bang", "" ],
					"fontsize" : 12.0
				}

			}
, 			{
				"box" : 				{
					"maxclass" : "newobj",
					"text" : "sel 1",
					"presentation_rect" : [ 1139.0, 598.0, 0.0, 0.0 ],
					"patching_rect" : [ 882.473633, 545.0, 36.0, 20.0 ],
					"numinlets" : 2,
					"id" : "obj-50",
					"fontname" : "Arial",
					"numoutlets" : 2,
					"outlettype" : [ "bang", "" ],
					"fontsize" : 12.0
				}

			}
, 			{
				"box" : 				{
					"maxclass" : "newobj",
					"text" : "sel 1",
					"presentation_rect" : [ 1098.0, 597.0, 0.0, 0.0 ],
					"patching_rect" : [ 837.473633, 545.0, 36.0, 20.0 ],
					"numinlets" : 2,
					"id" : "obj-51",
					"fontname" : "Arial",
					"numoutlets" : 2,
					"outlettype" : [ "bang", "" ],
					"fontsize" : 12.0
				}

			}
, 			{
				"box" : 				{
					"maxclass" : "newobj",
					"text" : "sel 1",
					"presentation_rect" : [ 1052.0, 597.0, 0.0, 0.0 ],
					"patching_rect" : [ 792.473633, 545.0, 36.0, 20.0 ],
					"numinlets" : 2,
					"id" : "obj-52",
					"fontname" : "Arial",
					"numoutlets" : 2,
					"outlettype" : [ "bang", "" ],
					"fontsize" : 12.0
				}

			}
, 			{
				"box" : 				{
					"maxclass" : "button",
					"presentation_rect" : [ 1019.0, 640.0, 0.0, 0.0 ],
					"patching_rect" : [ 927.263184, 576.0, 20.0, 20.0 ],
					"numinlets" : 1,
					"id" : "obj-39",
					"numoutlets" : 1,
					"outlettype" : [ "bang" ]
				}

			}
, 			{
				"box" : 				{
					"maxclass" : "button",
					"presentation_rect" : [ 985.0, 638.0, 0.0, 0.0 ],
					"patching_rect" : [ 882.263184, 576.0, 20.0, 20.0 ],
					"numinlets" : 1,
					"id" : "obj-40",
					"numoutlets" : 1,
					"outlettype" : [ "bang" ]
				}

			}
, 			{
				"box" : 				{
					"maxclass" : "button",
					"presentation_rect" : [ 944.0, 636.0, 0.0, 0.0 ],
					"patching_rect" : [ 837.263184, 576.0, 20.0, 20.0 ],
					"numinlets" : 1,
					"id" : "obj-41",
					"numoutlets" : 1,
					"outlettype" : [ "bang" ]
				}

			}
, 			{
				"box" : 				{
					"maxclass" : "button",
					"presentation_rect" : [ 905.0, 636.0, 0.0, 0.0 ],
					"patching_rect" : [ 792.263184, 576.0, 20.0, 20.0 ],
					"numinlets" : 1,
					"id" : "obj-42",
					"numoutlets" : 1,
					"outlettype" : [ "bang" ]
				}

			}
, 			{
				"box" : 				{
					"maxclass" : "button",
					"presentation_rect" : [ 871.0, 636.0, 0.0, 0.0 ],
					"patching_rect" : [ 747.263184, 576.0, 20.0, 20.0 ],
					"numinlets" : 1,
					"id" : "obj-43",
					"numoutlets" : 1,
					"outlettype" : [ "bang" ]
				}

			}
, 			{
				"box" : 				{
					"maxclass" : "button",
					"presentation_rect" : [ 838.0, 639.0, 0.0, 0.0 ],
					"patching_rect" : [ 702.263184, 576.0, 20.0, 20.0 ],
					"numinlets" : 1,
					"id" : "obj-44",
					"numoutlets" : 1,
					"outlettype" : [ "bang" ]
				}

			}
, 			{
				"box" : 				{
					"maxclass" : "button",
					"presentation_rect" : [ 804.0, 637.0, 0.0, 0.0 ],
					"patching_rect" : [ 657.263184, 576.0, 20.0, 20.0 ],
					"numinlets" : 1,
					"id" : "obj-45",
					"numoutlets" : 1,
					"outlettype" : [ "bang" ]
				}

			}
, 			{
				"box" : 				{
					"maxclass" : "button",
					"presentation_rect" : [ 763.0, 635.0, 0.0, 0.0 ],
					"patching_rect" : [ 612.263184, 576.0, 20.0, 20.0 ],
					"numinlets" : 1,
					"id" : "obj-46",
					"numoutlets" : 1,
					"outlettype" : [ "bang" ]
				}

			}
, 			{
				"box" : 				{
					"maxclass" : "button",
					"presentation_rect" : [ 724.0, 635.0, 0.0, 0.0 ],
					"patching_rect" : [ 567.263184, 576.0, 20.0, 20.0 ],
					"numinlets" : 1,
					"id" : "obj-47",
					"numoutlets" : 1,
					"outlettype" : [ "bang" ]
				}

			}
, 			{
				"box" : 				{
					"maxclass" : "button",
					"presentation_rect" : [ 690.0, 635.0, 0.0, 0.0 ],
					"patching_rect" : [ 522.263184, 576.0, 20.0, 20.0 ],
					"numinlets" : 1,
					"id" : "obj-48",
					"numoutlets" : 1,
					"outlettype" : [ "bang" ]
				}

			}
, 			{
				"box" : 				{
					"maxclass" : "button",
					"presentation_rect" : [ 640.0, 632.0, 0.0, 0.0 ],
					"patching_rect" : [ 477.263184, 576.0, 20.0, 20.0 ],
					"numinlets" : 1,
					"id" : "obj-34",
					"numoutlets" : 1,
					"outlettype" : [ "bang" ]
				}

			}
, 			{
				"box" : 				{
					"maxclass" : "button",
					"presentation_rect" : [ 606.0, 630.0, 0.0, 0.0 ],
					"patching_rect" : [ 432.263184, 576.0, 20.0, 20.0 ],
					"numinlets" : 1,
					"id" : "obj-35",
					"numoutlets" : 1,
					"outlettype" : [ "bang" ]
				}

			}
, 			{
				"box" : 				{
					"maxclass" : "button",
					"presentation_rect" : [ 565.0, 628.0, 0.0, 0.0 ],
					"patching_rect" : [ 387.263184, 576.0, 20.0, 20.0 ],
					"numinlets" : 1,
					"id" : "obj-36",
					"numoutlets" : 1,
					"outlettype" : [ "bang" ]
				}

			}
, 			{
				"box" : 				{
					"maxclass" : "button",
					"presentation_rect" : [ 526.0, 628.0, 0.0, 0.0 ],
					"patching_rect" : [ 342.263184, 576.0, 20.0, 20.0 ],
					"numinlets" : 1,
					"id" : "obj-37",
					"numoutlets" : 1,
					"outlettype" : [ "bang" ]
				}

			}
, 			{
				"box" : 				{
					"maxclass" : "button",
					"presentation_rect" : [ 492.0, 628.0, 0.0, 0.0 ],
					"patching_rect" : [ 297.263184, 576.0, 20.0, 20.0 ],
					"numinlets" : 1,
					"id" : "obj-38",
					"numoutlets" : 1,
					"outlettype" : [ "bang" ]
				}

			}
, 			{
				"box" : 				{
					"maxclass" : "button",
					"patching_rect" : [ 252.263153, 576.0, 20.0, 20.0 ],
					"numinlets" : 1,
					"id" : "obj-33",
					"numoutlets" : 1,
					"outlettype" : [ "bang" ]
				}

			}
, 			{
				"box" : 				{
					"maxclass" : "button",
					"patching_rect" : [ 207.263153, 576.0, 20.0, 20.0 ],
					"numinlets" : 1,
					"id" : "obj-31",
					"numoutlets" : 1,
					"outlettype" : [ "bang" ]
				}

			}
, 			{
				"box" : 				{
					"maxclass" : "button",
					"patching_rect" : [ 162.263153, 576.0, 20.0, 20.0 ],
					"numinlets" : 1,
					"id" : "obj-29",
					"numoutlets" : 1,
					"outlettype" : [ "bang" ]
				}

			}
, 			{
				"box" : 				{
					"maxclass" : "button",
					"patching_rect" : [ 117.263153, 576.0, 20.0, 20.0 ],
					"numinlets" : 1,
					"id" : "obj-27",
					"numoutlets" : 1,
					"outlettype" : [ "bang" ]
				}

			}
, 			{
				"box" : 				{
					"maxclass" : "button",
					"patching_rect" : [ 72.0, 576.0, 20.0, 20.0 ],
					"numinlets" : 1,
					"id" : "obj-25",
					"numoutlets" : 1,
					"outlettype" : [ "bang" ]
				}

			}
, 			{
				"box" : 				{
					"maxclass" : "newobj",
					"text" : "sel 1",
					"presentation_rect" : [ 1004.0, 597.0, 0.0, 0.0 ],
					"patching_rect" : [ 747.473694, 545.0, 36.0, 20.0 ],
					"numinlets" : 2,
					"id" : "obj-16",
					"fontname" : "Arial",
					"numoutlets" : 2,
					"outlettype" : [ "bang", "" ],
					"fontsize" : 12.0
				}

			}
, 			{
				"box" : 				{
					"maxclass" : "newobj",
					"text" : "sel 1",
					"presentation_rect" : [ 953.0, 596.0, 0.0, 0.0 ],
					"patching_rect" : [ 702.473694, 545.0, 36.0, 20.0 ],
					"numinlets" : 2,
					"id" : "obj-17",
					"fontname" : "Arial",
					"numoutlets" : 2,
					"outlettype" : [ "bang", "" ],
					"fontsize" : 12.0
				}

			}
, 			{
				"box" : 				{
					"maxclass" : "newobj",
					"text" : "sel 1",
					"presentation_rect" : [ 912.0, 595.0, 0.0, 0.0 ],
					"patching_rect" : [ 657.473694, 545.0, 36.0, 20.0 ],
					"numinlets" : 2,
					"id" : "obj-18",
					"fontname" : "Arial",
					"numoutlets" : 2,
					"outlettype" : [ "bang", "" ],
					"fontsize" : 12.0
				}

			}
, 			{
				"box" : 				{
					"maxclass" : "newobj",
					"text" : "sel 1",
					"presentation_rect" : [ 866.0, 595.0, 0.0, 0.0 ],
					"patching_rect" : [ 612.473694, 545.0, 36.0, 20.0 ],
					"numinlets" : 2,
					"id" : "obj-19",
					"fontname" : "Arial",
					"numoutlets" : 2,
					"outlettype" : [ "bang", "" ],
					"fontsize" : 12.0
				}

			}
, 			{
				"box" : 				{
					"maxclass" : "newobj",
					"text" : "sel 1",
					"presentation_rect" : [ 826.0, 596.0, 0.0, 0.0 ],
					"patching_rect" : [ 567.473694, 545.0, 36.0, 20.0 ],
					"numinlets" : 2,
					"id" : "obj-20",
					"fontname" : "Arial",
					"numoutlets" : 2,
					"outlettype" : [ "bang", "" ],
					"fontsize" : 12.0
				}

			}
, 			{
				"box" : 				{
					"maxclass" : "newobj",
					"text" : "sel 1",
					"presentation_rect" : [ 775.0, 595.0, 0.0, 0.0 ],
					"patching_rect" : [ 522.473694, 545.0, 36.0, 20.0 ],
					"numinlets" : 2,
					"id" : "obj-21",
					"fontname" : "Arial",
					"numoutlets" : 2,
					"outlettype" : [ "bang", "" ],
					"fontsize" : 12.0
				}

			}
, 			{
				"box" : 				{
					"maxclass" : "newobj",
					"text" : "sel 1",
					"presentation_rect" : [ 734.0, 594.0, 0.0, 0.0 ],
					"patching_rect" : [ 477.473694, 545.0, 36.0, 20.0 ],
					"numinlets" : 2,
					"id" : "obj-22",
					"fontname" : "Arial",
					"numoutlets" : 2,
					"outlettype" : [ "bang", "" ],
					"fontsize" : 12.0
				}

			}
, 			{
				"box" : 				{
					"maxclass" : "newobj",
					"text" : "sel 1",
					"presentation_rect" : [ 688.0, 594.0, 0.0, 0.0 ],
					"patching_rect" : [ 432.473694, 545.0, 36.0, 20.0 ],
					"numinlets" : 2,
					"id" : "obj-23",
					"fontname" : "Arial",
					"numoutlets" : 2,
					"outlettype" : [ "bang", "" ],
					"fontsize" : 12.0
				}

			}
, 			{
				"box" : 				{
					"maxclass" : "newobj",
					"text" : "sel 1",
					"presentation_rect" : [ 642.0, 592.0, 0.0, 0.0 ],
					"patching_rect" : [ 387.473694, 545.0, 36.0, 20.0 ],
					"numinlets" : 2,
					"id" : "obj-12",
					"fontname" : "Arial",
					"numoutlets" : 2,
					"outlettype" : [ "bang", "" ],
					"fontsize" : 12.0
				}

			}
, 			{
				"box" : 				{
					"maxclass" : "newobj",
					"text" : "sel 1",
					"presentation_rect" : [ 591.0, 591.0, 0.0, 0.0 ],
					"patching_rect" : [ 342.473694, 545.0, 36.0, 20.0 ],
					"numinlets" : 2,
					"id" : "obj-13",
					"fontname" : "Arial",
					"numoutlets" : 2,
					"outlettype" : [ "bang", "" ],
					"fontsize" : 12.0
				}

			}
, 			{
				"box" : 				{
					"maxclass" : "newobj",
					"text" : "sel 1",
					"presentation_rect" : [ 550.0, 590.0, 0.0, 0.0 ],
					"patching_rect" : [ 297.473694, 545.0, 36.0, 20.0 ],
					"numinlets" : 2,
					"id" : "obj-14",
					"fontname" : "Arial",
					"numoutlets" : 2,
					"outlettype" : [ "bang", "" ],
					"fontsize" : 12.0
				}

			}
, 			{
				"box" : 				{
					"maxclass" : "newobj",
					"text" : "sel 1",
					"presentation_rect" : [ 504.0, 590.0, 0.0, 0.0 ],
					"patching_rect" : [ 252.473694, 545.0, 36.0, 20.0 ],
					"numinlets" : 2,
					"id" : "obj-15",
					"fontname" : "Arial",
					"numoutlets" : 2,
					"outlettype" : [ "bang", "" ],
					"fontsize" : 12.0
				}

			}
, 			{
				"box" : 				{
					"maxclass" : "newobj",
					"text" : "sel 1",
					"presentation_rect" : [ 464.0, 591.0, 0.0, 0.0 ],
					"patching_rect" : [ 207.473694, 545.0, 36.0, 20.0 ],
					"numinlets" : 2,
					"id" : "obj-11",
					"fontname" : "Arial",
					"numoutlets" : 2,
					"outlettype" : [ "bang", "" ],
					"fontsize" : 12.0
				}

			}
, 			{
				"box" : 				{
					"maxclass" : "newobj",
					"text" : "sel 1",
					"presentation_rect" : [ 413.0, 590.0, 0.0, 0.0 ],
					"patching_rect" : [ 162.473694, 545.0, 36.0, 20.0 ],
					"numinlets" : 2,
					"id" : "obj-10",
					"fontname" : "Arial",
					"numoutlets" : 2,
					"outlettype" : [ "bang", "" ],
					"fontsize" : 12.0
				}

			}
, 			{
				"box" : 				{
					"maxclass" : "newobj",
					"text" : "sel 1",
					"presentation_rect" : [ 372.0, 589.0, 0.0, 0.0 ],
					"patching_rect" : [ 117.473694, 545.0, 36.0, 20.0 ],
					"numinlets" : 2,
					"id" : "obj-9",
					"fontname" : "Arial",
					"numoutlets" : 2,
					"outlettype" : [ "bang", "" ],
					"fontsize" : 12.0
				}

			}
, 			{
				"box" : 				{
					"maxclass" : "newobj",
					"text" : "sel 1",
					"patching_rect" : [ 72.0, 545.0, 36.0, 20.0 ],
					"numinlets" : 2,
					"id" : "obj-8",
					"fontname" : "Arial",
					"numoutlets" : 2,
					"outlettype" : [ "bang", "" ],
					"fontsize" : 12.0
				}

			}
, 			{
				"box" : 				{
					"maxclass" : "newobj",
					"text" : "unpack i i i i i i i i i i i i i i i i i i i i",
					"patching_rect" : [ 72.0, 512.0, 873.5, 20.0 ],
					"numinlets" : 1,
					"id" : "obj-7",
					"fontname" : "Arial",
					"numoutlets" : 20,
					"outlettype" : [ "int", "int", "int", "int", "int", "int", "int", "int", "int", "int", "int", "int", "int", "int", "int", "int", "int", "int", "int", "int" ],
					"fontsize" : 12.0
				}

			}
, 			{
				"box" : 				{
					"maxclass" : "message",
					"text" : "getcolumn $1",
					"patching_rect" : [ 30.0, 122.0, 83.0, 18.0 ],
					"numinlets" : 2,
					"id" : "obj-4",
					"fontname" : "Arial",
					"numoutlets" : 1,
					"outlettype" : [ "" ],
					"fontsize" : 12.0
				}

			}
, 			{
				"box" : 				{
					"maxclass" : "matrixctrl",
					"presentation_rect" : [ 0.0, 0.0, 642.0, 322.0 ],
					"rows" : 20,
					"autosize" : 1,
					"patching_rect" : [ 30.0, 148.0, 642.0, 322.0 ],
					"numinlets" : 1,
					"id" : "obj-1",
					"numoutlets" : 2,
					"outlettype" : [ "list", "list" ],
					"columns" : 40
				}

			}
 ],
		"lines" : [ 			{
				"patchline" : 				{
					"source" : [ "obj-134", 0 ],
					"destination" : [ "obj-123", 4 ],
					"hidden" : 0,
					"midpoints" : [  ]
				}

			}
, 			{
				"patchline" : 				{
					"source" : [ "obj-133", 0 ],
					"destination" : [ "obj-134", 0 ],
					"hidden" : 0,
					"midpoints" : [  ]
				}

			}
, 			{
				"patchline" : 				{
					"source" : [ "obj-120", 0 ],
					"destination" : [ "obj-123", 0 ],
					"hidden" : 0,
					"midpoints" : [  ]
				}

			}
, 			{
				"patchline" : 				{
					"source" : [ "obj-126", 0 ],
					"destination" : [ "obj-123", 2 ],
					"hidden" : 0,
					"midpoints" : [  ]
				}

			}
, 			{
				"patchline" : 				{
					"source" : [ "obj-123", 0 ],
					"destination" : [ "obj-54", 0 ],
					"hidden" : 0,
					"midpoints" : [  ]
				}

			}
, 			{
				"patchline" : 				{
					"source" : [ "obj-133", 0 ],
					"destination" : [ "obj-131", 0 ],
					"hidden" : 0,
					"midpoints" : [  ]
				}

			}
, 			{
				"patchline" : 				{
					"source" : [ "obj-131", 0 ],
					"destination" : [ "obj-1", 0 ],
					"hidden" : 0,
					"midpoints" : [  ]
				}

			}
, 			{
				"patchline" : 				{
					"source" : [ "obj-122", 0 ],
					"destination" : [ "obj-120", 0 ],
					"hidden" : 0,
					"midpoints" : [  ]
				}

			}
, 			{
				"patchline" : 				{
					"source" : [ "obj-80", 0 ],
					"destination" : [ "obj-88", 0 ],
					"hidden" : 0,
					"midpoints" : [  ]
				}

			}
, 			{
				"patchline" : 				{
					"source" : [ "obj-44", 0 ],
					"destination" : [ "obj-80", 0 ],
					"hidden" : 0,
					"midpoints" : [  ]
				}

			}
, 			{
				"patchline" : 				{
					"source" : [ "obj-88", 0 ],
					"destination" : [ "obj-90", 0 ],
					"hidden" : 0,
					"midpoints" : [  ]
				}

			}
, 			{
				"patchline" : 				{
					"source" : [ "obj-90", 0 ],
					"destination" : [ "obj-89", 1 ],
					"hidden" : 0,
					"midpoints" : [  ]
				}

			}
, 			{
				"patchline" : 				{
					"source" : [ "obj-90", 1 ],
					"destination" : [ "obj-89", 2 ],
					"hidden" : 0,
					"midpoints" : [  ]
				}

			}
, 			{
				"patchline" : 				{
					"source" : [ "obj-116", 0 ],
					"destination" : [ "obj-7", 0 ],
					"hidden" : 0,
					"midpoints" : [  ]
				}

			}
, 			{
				"patchline" : 				{
					"source" : [ "obj-1", 1 ],
					"destination" : [ "obj-116", 0 ],
					"hidden" : 0,
					"midpoints" : [  ]
				}

			}
, 			{
				"patchline" : 				{
					"source" : [ "obj-93", 0 ],
					"destination" : [ "obj-1", 0 ],
					"hidden" : 0,
					"midpoints" : [  ]
				}

			}
, 			{
				"patchline" : 				{
					"source" : [ "obj-39", 0 ],
					"destination" : [ "obj-86", 0 ],
					"hidden" : 0,
					"midpoints" : [  ]
				}

			}
, 			{
				"patchline" : 				{
					"source" : [ "obj-40", 0 ],
					"destination" : [ "obj-87", 0 ],
					"hidden" : 0,
					"midpoints" : [  ]
				}

			}
, 			{
				"patchline" : 				{
					"source" : [ "obj-41", 0 ],
					"destination" : [ "obj-77", 0 ],
					"hidden" : 0,
					"midpoints" : [  ]
				}

			}
, 			{
				"patchline" : 				{
					"source" : [ "obj-42", 0 ],
					"destination" : [ "obj-78", 0 ],
					"hidden" : 0,
					"midpoints" : [  ]
				}

			}
, 			{
				"patchline" : 				{
					"source" : [ "obj-43", 0 ],
					"destination" : [ "obj-79", 0 ],
					"hidden" : 0,
					"midpoints" : [  ]
				}

			}
, 			{
				"patchline" : 				{
					"source" : [ "obj-45", 0 ],
					"destination" : [ "obj-81", 0 ],
					"hidden" : 0,
					"midpoints" : [  ]
				}

			}
, 			{
				"patchline" : 				{
					"source" : [ "obj-46", 0 ],
					"destination" : [ "obj-82", 0 ],
					"hidden" : 0,
					"midpoints" : [  ]
				}

			}
, 			{
				"patchline" : 				{
					"source" : [ "obj-47", 0 ],
					"destination" : [ "obj-83", 0 ],
					"hidden" : 0,
					"midpoints" : [  ]
				}

			}
, 			{
				"patchline" : 				{
					"source" : [ "obj-48", 0 ],
					"destination" : [ "obj-84", 0 ],
					"hidden" : 0,
					"midpoints" : [  ]
				}

			}
, 			{
				"patchline" : 				{
					"source" : [ "obj-34", 0 ],
					"destination" : [ "obj-85", 0 ],
					"hidden" : 0,
					"midpoints" : [  ]
				}

			}
, 			{
				"patchline" : 				{
					"source" : [ "obj-35", 0 ],
					"destination" : [ "obj-76", 0 ],
					"hidden" : 0,
					"midpoints" : [  ]
				}

			}
, 			{
				"patchline" : 				{
					"source" : [ "obj-36", 0 ],
					"destination" : [ "obj-75", 0 ],
					"hidden" : 0,
					"midpoints" : [  ]
				}

			}
, 			{
				"patchline" : 				{
					"source" : [ "obj-37", 0 ],
					"destination" : [ "obj-74", 0 ],
					"hidden" : 0,
					"midpoints" : [  ]
				}

			}
, 			{
				"patchline" : 				{
					"source" : [ "obj-38", 0 ],
					"destination" : [ "obj-73", 0 ],
					"hidden" : 0,
					"midpoints" : [  ]
				}

			}
, 			{
				"patchline" : 				{
					"source" : [ "obj-33", 0 ],
					"destination" : [ "obj-72", 0 ],
					"hidden" : 0,
					"midpoints" : [  ]
				}

			}
, 			{
				"patchline" : 				{
					"source" : [ "obj-31", 0 ],
					"destination" : [ "obj-71", 0 ],
					"hidden" : 0,
					"midpoints" : [  ]
				}

			}
, 			{
				"patchline" : 				{
					"source" : [ "obj-29", 0 ],
					"destination" : [ "obj-70", 0 ],
					"hidden" : 0,
					"midpoints" : [  ]
				}

			}
, 			{
				"patchline" : 				{
					"source" : [ "obj-27", 0 ],
					"destination" : [ "obj-69", 0 ],
					"hidden" : 0,
					"midpoints" : [  ]
				}

			}
, 			{
				"patchline" : 				{
					"source" : [ "obj-25", 0 ],
					"destination" : [ "obj-68", 0 ],
					"hidden" : 0,
					"midpoints" : [  ]
				}

			}
, 			{
				"patchline" : 				{
					"source" : [ "obj-89", 1 ],
					"destination" : [ "obj-91", 1 ],
					"hidden" : 0,
					"midpoints" : [  ]
				}

			}
, 			{
				"patchline" : 				{
					"source" : [ "obj-89", 0 ],
					"destination" : [ "obj-91", 0 ],
					"hidden" : 0,
					"midpoints" : [  ]
				}

			}
, 			{
				"patchline" : 				{
					"source" : [ "obj-88", 0 ],
					"destination" : [ "obj-89", 0 ],
					"hidden" : 0,
					"midpoints" : [  ]
				}

			}
, 			{
				"patchline" : 				{
					"source" : [ "obj-86", 0 ],
					"destination" : [ "obj-88", 0 ],
					"hidden" : 0,
					"midpoints" : [  ]
				}

			}
, 			{
				"patchline" : 				{
					"source" : [ "obj-87", 0 ],
					"destination" : [ "obj-88", 0 ],
					"hidden" : 0,
					"midpoints" : [  ]
				}

			}
, 			{
				"patchline" : 				{
					"source" : [ "obj-77", 0 ],
					"destination" : [ "obj-88", 0 ],
					"hidden" : 0,
					"midpoints" : [  ]
				}

			}
, 			{
				"patchline" : 				{
					"source" : [ "obj-78", 0 ],
					"destination" : [ "obj-88", 0 ],
					"hidden" : 0,
					"midpoints" : [  ]
				}

			}
, 			{
				"patchline" : 				{
					"source" : [ "obj-79", 0 ],
					"destination" : [ "obj-88", 0 ],
					"hidden" : 0,
					"midpoints" : [  ]
				}

			}
, 			{
				"patchline" : 				{
					"source" : [ "obj-81", 0 ],
					"destination" : [ "obj-88", 0 ],
					"hidden" : 0,
					"midpoints" : [  ]
				}

			}
, 			{
				"patchline" : 				{
					"source" : [ "obj-82", 0 ],
					"destination" : [ "obj-88", 0 ],
					"hidden" : 0,
					"midpoints" : [  ]
				}

			}
, 			{
				"patchline" : 				{
					"source" : [ "obj-83", 0 ],
					"destination" : [ "obj-88", 0 ],
					"hidden" : 0,
					"midpoints" : [  ]
				}

			}
, 			{
				"patchline" : 				{
					"source" : [ "obj-84", 0 ],
					"destination" : [ "obj-88", 0 ],
					"hidden" : 0,
					"midpoints" : [  ]
				}

			}
, 			{
				"patchline" : 				{
					"source" : [ "obj-85", 0 ],
					"destination" : [ "obj-88", 0 ],
					"hidden" : 0,
					"midpoints" : [  ]
				}

			}
, 			{
				"patchline" : 				{
					"source" : [ "obj-76", 0 ],
					"destination" : [ "obj-88", 0 ],
					"hidden" : 0,
					"midpoints" : [  ]
				}

			}
, 			{
				"patchline" : 				{
					"source" : [ "obj-75", 0 ],
					"destination" : [ "obj-88", 0 ],
					"hidden" : 0,
					"midpoints" : [  ]
				}

			}
, 			{
				"patchline" : 				{
					"source" : [ "obj-74", 0 ],
					"destination" : [ "obj-88", 0 ],
					"hidden" : 0,
					"midpoints" : [  ]
				}

			}
, 			{
				"patchline" : 				{
					"source" : [ "obj-73", 0 ],
					"destination" : [ "obj-88", 0 ],
					"hidden" : 0,
					"midpoints" : [  ]
				}

			}
, 			{
				"patchline" : 				{
					"source" : [ "obj-72", 0 ],
					"destination" : [ "obj-88", 0 ],
					"hidden" : 0,
					"midpoints" : [  ]
				}

			}
, 			{
				"patchline" : 				{
					"source" : [ "obj-71", 0 ],
					"destination" : [ "obj-88", 0 ],
					"hidden" : 0,
					"midpoints" : [  ]
				}

			}
, 			{
				"patchline" : 				{
					"source" : [ "obj-70", 0 ],
					"destination" : [ "obj-88", 0 ],
					"hidden" : 0,
					"midpoints" : [  ]
				}

			}
, 			{
				"patchline" : 				{
					"source" : [ "obj-69", 0 ],
					"destination" : [ "obj-88", 0 ],
					"hidden" : 0,
					"midpoints" : [  ]
				}

			}
, 			{
				"patchline" : 				{
					"source" : [ "obj-68", 0 ],
					"destination" : [ "obj-88", 0 ],
					"hidden" : 0,
					"midpoints" : [  ]
				}

			}
, 			{
				"patchline" : 				{
					"source" : [ "obj-54", 0 ],
					"destination" : [ "obj-4", 0 ],
					"hidden" : 0,
					"midpoints" : [  ]
				}

			}
, 			{
				"patchline" : 				{
					"source" : [ "obj-49", 0 ],
					"destination" : [ "obj-39", 0 ],
					"hidden" : 0,
					"midpoints" : [  ]
				}

			}
, 			{
				"patchline" : 				{
					"source" : [ "obj-50", 0 ],
					"destination" : [ "obj-40", 0 ],
					"hidden" : 0,
					"midpoints" : [  ]
				}

			}
, 			{
				"patchline" : 				{
					"source" : [ "obj-51", 0 ],
					"destination" : [ "obj-41", 0 ],
					"hidden" : 0,
					"midpoints" : [  ]
				}

			}
, 			{
				"patchline" : 				{
					"source" : [ "obj-52", 0 ],
					"destination" : [ "obj-42", 0 ],
					"hidden" : 0,
					"midpoints" : [  ]
				}

			}
, 			{
				"patchline" : 				{
					"source" : [ "obj-7", 19 ],
					"destination" : [ "obj-49", 0 ],
					"hidden" : 0,
					"midpoints" : [  ]
				}

			}
, 			{
				"patchline" : 				{
					"source" : [ "obj-7", 18 ],
					"destination" : [ "obj-50", 0 ],
					"hidden" : 0,
					"midpoints" : [  ]
				}

			}
, 			{
				"patchline" : 				{
					"source" : [ "obj-7", 17 ],
					"destination" : [ "obj-51", 0 ],
					"hidden" : 0,
					"midpoints" : [  ]
				}

			}
, 			{
				"patchline" : 				{
					"source" : [ "obj-7", 0 ],
					"destination" : [ "obj-8", 0 ],
					"hidden" : 0,
					"midpoints" : [  ]
				}

			}
, 			{
				"patchline" : 				{
					"source" : [ "obj-7", 1 ],
					"destination" : [ "obj-9", 0 ],
					"hidden" : 0,
					"midpoints" : [  ]
				}

			}
, 			{
				"patchline" : 				{
					"source" : [ "obj-7", 2 ],
					"destination" : [ "obj-10", 0 ],
					"hidden" : 0,
					"midpoints" : [  ]
				}

			}
, 			{
				"patchline" : 				{
					"source" : [ "obj-7", 3 ],
					"destination" : [ "obj-11", 0 ],
					"hidden" : 0,
					"midpoints" : [  ]
				}

			}
, 			{
				"patchline" : 				{
					"source" : [ "obj-7", 4 ],
					"destination" : [ "obj-15", 0 ],
					"hidden" : 0,
					"midpoints" : [  ]
				}

			}
, 			{
				"patchline" : 				{
					"source" : [ "obj-7", 5 ],
					"destination" : [ "obj-14", 0 ],
					"hidden" : 0,
					"midpoints" : [  ]
				}

			}
, 			{
				"patchline" : 				{
					"source" : [ "obj-7", 6 ],
					"destination" : [ "obj-13", 0 ],
					"hidden" : 0,
					"midpoints" : [  ]
				}

			}
, 			{
				"patchline" : 				{
					"source" : [ "obj-7", 7 ],
					"destination" : [ "obj-12", 0 ],
					"hidden" : 0,
					"midpoints" : [  ]
				}

			}
, 			{
				"patchline" : 				{
					"source" : [ "obj-7", 8 ],
					"destination" : [ "obj-23", 0 ],
					"hidden" : 0,
					"midpoints" : [  ]
				}

			}
, 			{
				"patchline" : 				{
					"source" : [ "obj-7", 9 ],
					"destination" : [ "obj-22", 0 ],
					"hidden" : 0,
					"midpoints" : [  ]
				}

			}
, 			{
				"patchline" : 				{
					"source" : [ "obj-7", 10 ],
					"destination" : [ "obj-21", 0 ],
					"hidden" : 0,
					"midpoints" : [  ]
				}

			}
, 			{
				"patchline" : 				{
					"source" : [ "obj-7", 11 ],
					"destination" : [ "obj-20", 0 ],
					"hidden" : 0,
					"midpoints" : [  ]
				}

			}
, 			{
				"patchline" : 				{
					"source" : [ "obj-7", 12 ],
					"destination" : [ "obj-19", 0 ],
					"hidden" : 0,
					"midpoints" : [  ]
				}

			}
, 			{
				"patchline" : 				{
					"source" : [ "obj-7", 13 ],
					"destination" : [ "obj-18", 0 ],
					"hidden" : 0,
					"midpoints" : [  ]
				}

			}
, 			{
				"patchline" : 				{
					"source" : [ "obj-7", 14 ],
					"destination" : [ "obj-17", 0 ],
					"hidden" : 0,
					"midpoints" : [  ]
				}

			}
, 			{
				"patchline" : 				{
					"source" : [ "obj-7", 15 ],
					"destination" : [ "obj-16", 0 ],
					"hidden" : 0,
					"midpoints" : [  ]
				}

			}
, 			{
				"patchline" : 				{
					"source" : [ "obj-7", 16 ],
					"destination" : [ "obj-52", 0 ],
					"hidden" : 0,
					"midpoints" : [  ]
				}

			}
, 			{
				"patchline" : 				{
					"source" : [ "obj-16", 0 ],
					"destination" : [ "obj-43", 0 ],
					"hidden" : 0,
					"midpoints" : [  ]
				}

			}
, 			{
				"patchline" : 				{
					"source" : [ "obj-17", 0 ],
					"destination" : [ "obj-44", 0 ],
					"hidden" : 0,
					"midpoints" : [  ]
				}

			}
, 			{
				"patchline" : 				{
					"source" : [ "obj-18", 0 ],
					"destination" : [ "obj-45", 0 ],
					"hidden" : 0,
					"midpoints" : [  ]
				}

			}
, 			{
				"patchline" : 				{
					"source" : [ "obj-19", 0 ],
					"destination" : [ "obj-46", 0 ],
					"hidden" : 0,
					"midpoints" : [  ]
				}

			}
, 			{
				"patchline" : 				{
					"source" : [ "obj-20", 0 ],
					"destination" : [ "obj-47", 0 ],
					"hidden" : 0,
					"midpoints" : [  ]
				}

			}
, 			{
				"patchline" : 				{
					"source" : [ "obj-21", 0 ],
					"destination" : [ "obj-48", 0 ],
					"hidden" : 0,
					"midpoints" : [  ]
				}

			}
, 			{
				"patchline" : 				{
					"source" : [ "obj-22", 0 ],
					"destination" : [ "obj-34", 0 ],
					"hidden" : 0,
					"midpoints" : [  ]
				}

			}
, 			{
				"patchline" : 				{
					"source" : [ "obj-23", 0 ],
					"destination" : [ "obj-35", 0 ],
					"hidden" : 0,
					"midpoints" : [  ]
				}

			}
, 			{
				"patchline" : 				{
					"source" : [ "obj-12", 0 ],
					"destination" : [ "obj-36", 0 ],
					"hidden" : 0,
					"midpoints" : [  ]
				}

			}
, 			{
				"patchline" : 				{
					"source" : [ "obj-13", 0 ],
					"destination" : [ "obj-37", 0 ],
					"hidden" : 0,
					"midpoints" : [  ]
				}

			}
, 			{
				"patchline" : 				{
					"source" : [ "obj-14", 0 ],
					"destination" : [ "obj-38", 0 ],
					"hidden" : 0,
					"midpoints" : [  ]
				}

			}
, 			{
				"patchline" : 				{
					"source" : [ "obj-15", 0 ],
					"destination" : [ "obj-33", 0 ],
					"hidden" : 0,
					"midpoints" : [  ]
				}

			}
, 			{
				"patchline" : 				{
					"source" : [ "obj-11", 0 ],
					"destination" : [ "obj-31", 0 ],
					"hidden" : 0,
					"midpoints" : [  ]
				}

			}
, 			{
				"patchline" : 				{
					"source" : [ "obj-10", 0 ],
					"destination" : [ "obj-29", 0 ],
					"hidden" : 0,
					"midpoints" : [  ]
				}

			}
, 			{
				"patchline" : 				{
					"source" : [ "obj-9", 0 ],
					"destination" : [ "obj-27", 0 ],
					"hidden" : 0,
					"midpoints" : [  ]
				}

			}
, 			{
				"patchline" : 				{
					"source" : [ "obj-8", 0 ],
					"destination" : [ "obj-25", 0 ],
					"hidden" : 0,
					"midpoints" : [  ]
				}

			}
, 			{
				"patchline" : 				{
					"source" : [ "obj-4", 0 ],
					"destination" : [ "obj-1", 0 ],
					"hidden" : 0,
					"midpoints" : [  ]
				}

			}
 ]
	}

}
